# xmcd CD database file
#
# Track frame offsets:
#	150
#	14606
#	28918
#	44330
#	57309
#	70128
#	84967
#	99663
#	114482
#	129625
#	141523
#	152958
#	166835
#	178737
#	191967
#	204592
#	217996
#	232458
#	247529
#	263931
#	279340
#	292673
#	307959
#	313520
#	328597
#
# Disc length: 4567 seconds
#
# Revision: 0
# Processed by: cddbd v1.5.2PL0 Copyright (c) Steve Scherf et al.
# Submitted via: CDex 1.51
#
DISCID=7111d519
DTITLE=Glenn Miller - The Legacy of Glenn Miller 3
DYEAR=1900
DGENRE=Jazz
TTITLE0=Pennsylvania 6-5000
TTITLE1=Don't sit under the apple tree
TTITLE2=Serenade IN BLue
TTITLE3=When you wish upon a star
TTITLE4=Dearly Beloved
TTITLE5=Moonlight becomes you
TTITLE6=A Handful Of Stars
TTITLE7=Falling Leaves
TTITLE8=Starlight Hour
TTITLE9=The Sky Fell Down
TTITLE10=I'll never smile again
TTITLE11=Careless
TTITLE12=Ain'tcha coming out tonight
TTITLE13=Beat me Daddy, Eight to the Bar
TTITLE14=Johnson Rag
TTITLE15=The Cowboy Serenade
TTITLE16=Orange Blossom Lane
TTITLE17=The Call of the Canyon
TTITLE18=I Dream I Dwelt In Harlem
TTITLE19=Song Of The Volga Boatmen
TTITLE20=Keep'Em Flying
TTITLE21=Ida sweet as apple cider
TTITLE22=Slumber Song
TTITLE23=Stardust
TTITLE24=MY Reverie
EXTD=
EXTT0=
EXTT1=
EXTT2=
EXTT3=
EXTT4=
EXTT5=
EXTT6=
EXTT7=
EXTT8=
EXTT9=
EXTT10=
EXTT11=
EXTT12=
EXTT13=
EXTT14=
EXTT15=
EXTT16=
EXTT17=
EXTT18=
EXTT19=
EXTT20=
EXTT21=
EXTT22=
EXTT23=
EXTT24=
PLAYORDER=
